<?xml version="1.0" encoding="UTF-8" standalone="no"?>
<svg
   width="955.44977"
   height="230"
   version="1.1"
   id="svg6"
   sodipodi:docname="fradgify_tight_2.svg"
   inkscape:version="1.4 (86a8ad7, 2024-10-11)"
   xmlns:inkscape="http://www.inkscape.org/namespaces/inkscape"
   xmlns:sodipodi="http://sodipodi.sourceforge.net/DTD/sodipodi-0.dtd"
   xmlns="http://www.w3.org/2000/svg"
   xmlns:svg="http://www.w3.org/2000/svg">
  <defs
     id="defs6" />
  <sodipodi:namedview
     id="namedview6"
     pagecolor="#ffffff"
     bordercolor="#000000"
     borderopacity="0.25"
     inkscape:showpageshadow="2"
     inkscape:pageopacity="0.0"
     inkscape:pagecheckerboard="0"
     inkscape:deskcolor="#d1d1d1"
     inkscape:zoom="1.3374032"
     inkscape:cx="578.3596"
     inkscape:cy="269.55221"
     inkscape:window-width="1920"
     inkscape:window-height="1017"
     inkscape:window-x="1912"
     inkscape:window-y="-8"
     inkscape:window-maximized="1"
     inkscape:current-layer="svg6"
     showguides="true" />
  <path
     style="fill:#a354b6;stroke:none"
     d="M 0,0 V 230 H 231 V 0 Z"
     id="path1" />
  <path
     style="fill:#fffeff;stroke:none"
     d="M 231,0 V 230 H 955.44979 V 0 H 231 M 92,64 c 4.3598,-0.7471 5.7599,-3.9363 9.043,-6.6073 3.8,-3.0907 9.076,-4.7658 13.957,-4.8179 4.808,-0.0513 10.111,0.856 13.985,3.8442 3.648,2.8147 5.258,6.7659 10.015,7.581 -0.008,-11.5291 -4.517,-19.0323 -15,-24.3943 -2.702,-1.3819 -5.873,-3.1673 -9,-3.0139 C 100.903,37.2834 92.0083,51.5385 92,64 M 77,49 c 3.2676,1.8077 6.5366,3.6151 10,5 1.7756,-3.6362 3.7814,-7.1423 5,-11 -7.1342,-3.0222 -12.6363,-1.8861 -15,6 m 67,6 c 2.507,-1.3121 9.447,-3.3069 10.168,-6.3017 1.528,-6.3411 -10.17,-9.9712 -13.008,-4.2793 -1.446,2.9014 2.003,7.7299 2.84,10.581 z"
     id="path2"
     sodipodi:nodetypes="cccccccsccccccccccccc" />
  <path
     style="fill:#a354b6;stroke:none"
     d="m 354,45 v 148 c 4.537,0 13.771,1.744 17.258,-1.742 C 374.736,187.78 373,178.502 373,174 c 0,-15.926 0.997,-32.197 -1,-48 2.48,0.009 5.517,-0.345 7.725,1.028 2.628,1.634 3.698,5.283 4.854,7.972 2.307,5.368 4.765,10.684 7.19,16 4.093,8.971 8.079,17.995 12.092,27 1.955,4.385 4.008,10.24 8.244,12.91 5.292,3.336 14.783,3.039 20.895,3.09 -1.433,-8.04 -6.608,-15.609 -10,-23 -6.894,-15.02 -13.671,-30.73 -22,-45 22.043,-3.319 18.006,-35.698 18,-52 -0.003,-7.2083 -0.741,-15.793 -5.638,-21.5602 C 399.776,36.4391 371.821,44.6322 354,45 m 184,0 v 149 c 6.633,0 13.382,-0.364 20,0.09 13.766,0.942 31.478,3.564 42.79,-6.619 8.3,-7.472 9.957,-19.113 11.621,-29.471 2.028,-12.629 1.589,-25.243 1.589,-38 0,-13.453 0.304,-26.6628 -1.576,-40 C 610.789,68.3939 609.695,58.3717 599.999,50.4676 583.472,36.9946 557.458,45 538,45 m 170,147 v -77 c -4.54,0 -12.822,-1.566 -16.436,1.742 C 687.881,120.114 689,127.547 689,132 c 0,13.053 -3.125,30.854 2,43 -8.23,0.353 -17.864,4.402 -24.957,-1.394 -7.236,-5.913 -7.03,-14.274 -8.708,-22.606 -3.807,-18.903 -1.827,-40.86 -0.424,-60 0.599,-8.1676 0.985,-17.3379 6.479,-23.9568 7.428,-8.9472 15.983,-3.29 25.61,-3.0579 6.283,0.1515 11.398,-0.2752 13.556,-7 C 703.396,54.3681 703.778,51.7236 704,49 686.403,47.5996 668.048,37.1643 652,49.5293 641.942,57.2794 640.315,67.228 638.573,79 636.602,92.3158 637,105.55 637,119 c 0,13.051 -0.488,26.059 1.427,39 1.577,10.651 3.745,23.227 12.666,30.443 15.822,12.797 38.994,3.705 56.907,3.557 M 273,45 v 105 28 c 0,3.829 -0.738,9.166 1.434,12.566 2.865,4.488 13.948,2.434 18.566,2.434 v -43 c 0,-8.977 0.644,-18.145 -1,-27 h 41 v -18 h -41 c 1.736,-13.7328 1.736,-28.2672 0,-42 h 43 V 45 h -62 m 185,148 c 0.679,-15.803 5.896,-31.372 8,-47 h 26 c 1.371,10.79 4.459,21.252 6.001,32 0.619,4.319 1.352,11.215 5.393,13.821 4.485,2.894 13.447,1.179 18.606,1.179 -4.141,-20.073 -9.399,-39.909 -13.449,-60 -2.701,-13.397 -6.449,-26.594 -9.151,-40 -1.487,-7.376 -3.491,-14.6277 -5.001,-22 -1.231,-6.0098 -2.665,-12.0213 -4.05,-18 -0.524,-2.2597 -0.9,-5.4851 -2.913,-6.9722 C 485.054,44.2677 480.775,44.9989 478,45 c -3.054,0.0012 -7.658,-0.7827 -9.487,2.3179 -4.216,7.1467 -4.384,18.659 -6.386,26.6821 -5.872,23.5234 -10.574,47.369 -16.008,71 -2.371,10.312 -4.647,20.623 -6.719,31 -0.819,4.101 -2.569,9.788 -0.797,13.852 C 440.964,195.264 453.178,193 458,193 M 731,45 v 106 28 c 0,3.513 -0.75,8.479 1.318,11.566 C 735.237,194.924 745.449,193 750,193 V 91 62 c 0,-3.7775 0.98,-9.2536 -0.603,-12.7716 C 746.9,43.6792 735.911,45 731,45 m 44,0 v 106 28 c 0,3.535 -0.736,8.454 1.318,11.57 3.321,5.038 13.555,3.43 18.682,3.43 v -46 c 0,-8.21 1.246,-17.307 -2,-25 h 42 v -18 h -42 c 2.505,-7.902 2,-15.7913 2,-24 0,-6.2162 0.457,-12.177 -2,-18 h 44 V 45 h -62 m 73,1 c 4.548,19.6502 14.246,39.1455 21.424,58 2.447,6.426 6.331,13.159 7.363,20 2.264,15.003 0.213,31.822 0.213,47 0,5.385 -1.576,13.808 0.742,18.772 2.484,5.316 13.476,3.228 18.258,3.228 v -47 c 0,-7.614 -1.286,-16.589 0.61,-24 4.413,-17.251 13.21,-34.2885 19.44,-51 2.893,-7.7603 6.567,-15.6267 6.95,-24 -6.001,-1.1142 -11.917,-1 -18,-1 -1.493,6.4551 -3.906,12.717 -6,19 -2.778,8.3328 -5.502,16.6857 -8.334,25 -0.603,1.7708 -1.732,6.928 -4.497,6.3688 -2.036,-0.4117 -2.778,-3.7655 -3.382,-5.3696 -1.853,-4.923 -3.141,-10.009 -4.788,-14.9992 -2.306,-6.9876 -4.247,-14.2409 -7.156,-21 -1.208,-2.8073 -2.426,-6.1488 -5.172,-7.821 C 861.206,44.4604 853.056,46 848,46 Z"
     id="path3" />
  <path
     style="fill:#fffeff;stroke:none"
     d="M 55,54 C 53.0523,64.4913 53.0028,81.3776 64,87 68.4781,73.8826 73.6736,68.2627 87,64 81.0447,51.3437 66.4341,53.5091 55,54 m 89,11 c 13.775,0.707 19.026,10.3597 23,22 12.656,-5.9553 10.491,-20.5659 10,-32 -9.178,-1.7039 -30.909,-2.3598 -33,10 m -41,27 c 9.464,-3.49 -1.496,-16.359 3.742,-23.8912 4.371,-6.2838 15.639,-5.3324 18.516,1.9097 C 127.922,76.7253 123.974,84.3787 123,91 l 5,1 c 1.695,-8.2164 6.027,-20.1146 1.142,-27.9807 -5.415,-8.72 -23.197,-8.238 -27.963,0.9961 C 97.2012,72.722 101.384,84.1649 103,92 M 372,61 c 1.226,15.5393 1.961,31.481 0,47 6.557,0 17.419,2.058 22.772,-2.514 7.013,-5.9896 4.593,-23.2339 4.188,-31.486 -0.164,-3.3366 -0.793,-6.9774 -3.379,-9.3472 C 389.903,59.4501 379.047,61 372,61 m 184,0 c 4.097,15.486 2,33.0232 2,49 0,21.751 2.851,45.779 -2,67 9.168,0 23.637,2.804 30.786,-4.225 6.459,-6.349 6.662,-17.337 7.239,-25.775 1.32,-19.328 2.439,-39.701 0.13,-59 C 593.23,80.2677 592.709,71.0248 586.787,65.2245 579.618,58.2027 565.183,61 556,61 m -443.682,9.0316 c -4.14,2.6876 -1.875,10.3338 -0.438,13.9491 0.699,1.7569 2.191,5.158 4.676,3.8434 3.772,-1.9958 5.44,-11.9991 3.84,-15.5957 -1.282,-2.8808 -5.46,-3.8963 -8.078,-2.1968 M 70,94 h 6 C 76.2384,82.8086 83.1071,76.4752 94,75 V 70 C 84.3947,70.0011 74.1773,71.2418 70.804,82 69.6079,85.8146 70,90.055 70,94 m 67,-24 v 5 c 10.884,2.118 17.75,7.2792 18,19 h 6 c 0,-3.96 0.363,-8.1624 -0.8,-11.9992 C 157.002,71.45 146.453,70.001 137,70 M 44,91 55,87 C 53.5075,83.2614 51.636,80.0239 51,76 41.9745,77.0058 39.8787,83.6338 44,91 M 182,77 c -1.891,3.2397 -3.558,6.5368 -5,10 2.591,1.2649 6.858,4.4673 9.852,3.554 4.053,-1.2363 3.481,-7.6237 1.407,-10.2508 C 186.697,78.3242 184.283,77.722 182,77 M 81,95 c 3.8896,0.805 13.2276,5.368 16.3032,1.5918 C 100.119,93.135 95.5497,84.0786 95,80 85.9852,81.2209 81.2179,85.732 81,95 m 69,0 c -0.05,-2.3464 -0.054,-4.7046 -0.804,-6.9614 -0.533,-1.6049 -1.333,-3.0551 -2.615,-4.1844 C 139.892,77.96 135.839,82.4806 133.965,89 c -0.892,3.1028 -2.493,8.0743 2.097,9.0679 C 140.081,98.9377 145.857,95.5606 150,95 M 477,83 c -1.18,14.823 -6.097,29.267 -8,44 h 20 c -2.982,-14.445 -7.829,-29.2888 -9,-44 h -3 M 64,139 C 63.0931,133.635 57.9594,131.614 55.4174,126.996 49.6035,116.435 52.9582,100.096 65,96 v -4 c -3.6315,4e-4 -7.5073,-0.3271 -11,0.8542 C 46.157,95.5069 37.127,106.497 36.6026,115 c -0.192,3.113 1.6287,6.315 3.0031,9 5.3305,10.415 13.0042,14.992 24.3943,15 M 166,96 c 19.248,6.548 13.647,31.321 0,40 6.064,8.409 18.089,-1.253 22.211,-7 2.485,-3.464 5.875,-8.637 6.189,-13 0.44,-6.12 -5.167,-13.662 -9.158,-17.7901 C 181.105,93.9297 168.813,87.5235 166,96 M 110,95.5324 C 84.0206,101.72 95.295,142.279 121,135.387 146.833,128.46 135.87,89.3709 110,95.5324 M 92,128 91,123 c -6.6775,0.899 -15.4499,5.285 -21.956,1.821 C 60.9471,120.51 62.2676,108.11 71.0039,105.573 77.8635,103.58 84.3144,107.334 91,108 l 1,-5 c -7.9322,-1.814 -19.1569,-5.7811 -26.9954,-1.682 -9.5718,5.005 -9.8441,23.414 0.0108,28.364 C 73.2782,133.832 83.7051,129.405 92,128 m 47,-25 1,5 c 6.253,-0.843 12.608,-4.071 18.999,-2.606 9.101,2.088 11.574,14.555 2.957,19.149 C 155.019,128.242 147.028,124.034 140,123 l -1,4 c 7.572,3.801 21.472,7.051 28.892,1.347 7.818,-6.009 7.15,-22.486 -1.907,-27.029 C 157.837,97.2311 147.178,101.307 139,103 Z"
     id="path4" />
  <path
     style="fill:#a354b6;stroke:none"
     d="m 114,104.707 c -13.951,1.871 -10.723,23.829 3,21.666 13.958,-2.201 10.951,-23.538 -3,-21.666 z"
     id="path5" />
  <path
     style="fill:#fffeff;stroke:none"
     d="m 72.1481,110.743 c -3.9236,1.753 -3.9657,7.773 0,9.511 3.6374,1.594 10.3503,-0.08 13.6991,-1.905 2.8744,-1.567 2.7642,-4.161 0,-5.781 -3.4115,-1.999 -9.9439,-3.502 -13.6991,-1.825 m 41.0799,0.015 c -6.128,2.645 -1.747,12.201 4.544,9.484 6.128,-2.645 1.747,-12.201 -4.544,-9.484 M 142,114 c 1.783,5.52 13.673,9.893 18.397,5.258 2.504,-2.459 1.65,-7.277 -1.545,-8.654 -2.661,-1.147 -6.17,-0.372 -8.852,0.299 -2.815,0.704 -5.383,1.874 -8,3.097 m -61,22 c 0.085,9.393 4.6074,13.915 14,14 0.814,-3.933 5.521,-13.255 1.642,-16.303 C 93.1724,130.97 84.8927,135.194 81,136 m 55,14 c 9.322,-0.104 13.916,-4.726 14,-14 -4.052,-0.598 -13.18,-5.617 -16.303,-1.642 -2.805,3.569 1.707,11.605 2.303,15.642 M 70,137 c 0.0061,9.266 1.6553,20.103 12,23.347 3.7495,1.176 8.1184,0.653 12,0.653 v -6 C 82.34,154.894 77.0957,147.77 75,137 h -5 m 85,0 c -0.234,10.993 -7.041,17.902 -18,19 v 5 c 9.446,-0.006 19.898,-1.485 23.196,-12 1.196,-3.814 0.804,-8.055 0.804,-12 h -6 m -111,2 c -1.8208,2.534 -3.2286,4.703 -2.5864,7.985 0.6678,3.412 4.2656,7.377 7.9529,4.972 C 51.8674,150.326 53.0371,146.643 54,144 l -10,-5 m 59,0 c -2.229,7.912 -5.9856,20.314 -1.142,27.956 5.512,8.697 23.115,8.404 27.824,-0.971 4.09,-8.143 0.01,-18.81 -1.682,-26.985 l -5,1 c 1.027,6.955 5.441,15.057 1.682,21.957 -4.267,7.834 -16.768,6.857 -19.248,-1.972 C 103.523,153.184 107.028,146.58 108,140 l -5,-1 m 73,5 c 1.175,2.743 2.801,8.346 5.549,9.863 6.165,3.405 12.22,-11.071 4.262,-12.847 -3,-0.669 -7.019,2.019 -9.811,2.984 m -62,-3 c -1.687,5.175 -6.35,13.4 -2.821,18.682 2.468,3.694 8.224,2.153 9.383,-1.791 C 122.136,152.542 118.625,145.994 117,141 h -3 m -27,25 c -12.1114,-0.285 -21.3831,-9.981 -22,-22 -8.9411,2.517 -12.2853,13.457 -11.8958,22 0.1281,2.811 0.4569,7.085 2.6342,9.142 2.3212,2.193 6.3246,1.856 9.2616,1.856 7.9296,0 19.4687,-2.393 22,-10.998 m 80,-22 c -4.384,12.841 -9.638,19.133 -23,23 6.611,12.629 20.112,10.51 32,10 1.961,-10.562 2.248,-27.468 -9,-33 m -75,22 c 4e-4,3.631 -0.3271,7.507 0.8542,11 2.6791,7.921 13.5178,16.995 22.1458,17.408 3.198,0.153 6.253,-1.759 9,-3.165 10.439,-5.343 14.992,-12.77 15,-24.243 -5.253,0.9 -7.426,6.081 -12.001,8.583 -10.7,5.852 -26.778,2.825 -30.999,-9.583 h -4 m -6,10 c -3.1892,2.269 -6.2349,3.913 -10,5 0.7066,2.913 1.4323,5.904 4.2245,7.539 2.9277,1.715 9.0296,1.336 9.8982,-2.753 C 90.787,182.659 87.7803,178.343 86,176 m 58,1 c -1.27,2.602 -4.368,6.719 -3.84,9.721 0.68,3.86 7.193,3.545 9.696,2.099 2.881,-1.664 3.491,-4.835 4.144,-7.82 -3.574,-0.818 -6.64,-2.561 -10,-4 z"
     id="path6" />
</svg>
